<?xml version="1.0" encoding="UTF-8"?>
<svg id="Capa_2" data-name="Capa 2" xmlns="http://www.w3.org/2000/svg" viewBox="0 0 48 48">
  <defs>
    <style>
      .cls-1 {
        fill: #fff;
      }

      .cls-2 {
        fill: #a50104;
      }
    </style>
  </defs>
  <g id="Capa_1-2" data-name="Capa 1">
    <rect class="cls-2" width="48" height="48" rx="15" ry="15"/>
    <path class="cls-1" d="M39.46,19.47h-9.08s3.47-9.41,3.47-9.41c.28-.77-.28-1.58-1.1-1.58h-7.01c-.49,0-.93.31-1.1.77l-3.77,10.22h-9.87c-.49,0-.93.31-1.1.77l-2.45,6.65c-.28.77.28,1.58,1.1,1.58h9.01l-3.5,9.48c-.28.77.28,1.58,1.1,1.58h7.01c.49,0,.93-.31,1.1-.77l3.8-10.29h9.95c.49,0,.93-.31,1.1-.77l2.45-6.65c.28-.77-.28-1.58-1.1-1.58Z"/>
  </g>
</svg>