<svg width="143" height="70" viewBox="0 0 143 70" fill="none" xmlns="http://www.w3.org/2000/svg">
<g clip-path="url(#clip0_15_1089)">
<path d="M134.794 0H28.4599C25.2223 0 22.3349 2.01887 21.2273 5.04717L0.930816 60.6934C-1.02878 66.0708 4.02168 71.3679 9.51235 69.6792L38.4614 60.7925C39.1241 60.5896 39.8151 60.4858 40.5062 60.4858H118.303C121.541 60.4858 124.428 58.467 125.536 55.4387L142.027 10.2925C143.854 5.28774 140.138 0 134.794 0Z" fill="#951914"/>
<path d="M42.409 27.7311H37.3632L39.2944 22.5235C39.4506 22.099 39.1382 21.6509 38.6838 21.6509H34.7883C34.5138 21.6509 34.2724 21.8207 34.1777 22.0754L32.0808 27.7358H26.5949C26.3204 27.7358 26.079 27.9056 25.9843 28.1603L24.6211 31.8443C24.4649 32.2688 24.7773 32.7216 25.2317 32.7216H30.2396L28.2942 37.9716C28.138 38.3962 28.4504 38.8443 28.9048 38.8443H32.8003C33.0748 38.8443 33.3162 38.6745 33.4109 38.4197L35.522 32.7216H41.0505C41.325 32.7216 41.5664 32.5518 41.6611 32.2971L43.0243 28.6131C43.1805 28.1886 42.8681 27.7358 42.4137 27.7358" fill="white"/>
<path d="M116.987 9.95288H100.766C100.662 9.95288 100.567 10.0048 100.511 10.0897C99.3888 11.7312 98.1771 13.3868 96.8707 15.0661C95.5264 16.7878 93.9928 18.5755 92.2652 20.4151C90.5375 22.2595 88.5495 24.2217 86.3106 26.3067C84.086 28.3774 81.53 30.6227 78.6379 33.0472C78.5953 33.0802 78.5669 33.1274 78.5432 33.1793L75.3672 41.7642C75.2914 41.967 75.4429 42.184 75.6606 42.184H95.8483L93.2213 49.2784C93.1456 49.4812 93.297 49.6982 93.5148 49.6982H102.503C102.636 49.6982 102.749 49.618 102.797 49.4953L105.504 42.184H110.957C111.09 42.184 111.203 42.1038 111.251 41.9812L113.825 35.0284C113.901 34.8255 113.75 34.6085 113.532 34.6085H108.306L117.281 10.3774C117.357 10.1746 117.205 9.9576 116.987 9.9576M87.5508 34.6038L87.7969 33.9434C89.8417 32.2218 91.8392 30.4482 93.7798 28.6227C95.7205 26.7972 97.6186 24.8538 99.4693 22.7925C101.32 20.7265 103.119 18.5331 104.865 16.2076H105.471L98.7309 34.401C98.6836 34.5236 98.57 34.6038 98.4374 34.6038H87.5555H87.5508Z" fill="white"/>
<path d="M75.8594 32.198C75.5517 30.4763 74.482 29.132 72.6455 28.1697C70.8847 27.2452 68.163 26.8961 64.4852 27.1178C64.258 27.132 64.0923 26.9103 64.1728 26.698L64.187 26.6603C64.2154 26.5848 64.2675 26.5235 64.3385 26.4905L79.4189 18.8442C79.4899 18.8065 79.5419 18.7499 79.5703 18.6744L82.647 10.3678C82.7227 10.165 82.5713 9.948 82.3535 9.948H54.2991C54.1665 9.948 54.0529 10.0282 54.0056 10.1508L51.3644 17.2782C51.2887 17.481 51.4401 17.698 51.6626 17.698L69.7061 17.5282C69.9238 17.5282 70.0753 17.7405 69.9995 17.948C69.9711 18.0235 69.9143 18.0848 69.8433 18.1178L53.9867 25.764C53.9157 25.7971 53.8589 25.8584 53.8305 25.9338L52.0649 30.698C51.9845 30.915 52.1596 31.1367 52.3915 31.1178C55.9652 30.7688 58.8147 30.7876 60.9447 31.1697C63.1693 31.5706 64.6556 32.3018 65.4129 33.3631C66.1655 34.4244 66.246 35.7593 65.6543 37.3631C65.181 38.6461 64.4899 39.7169 63.5906 40.5801C62.6865 41.4433 61.6263 42.0848 60.4051 42.5046C59.1839 42.9244 57.868 43.1367 56.4622 43.1367C55.2552 43.1367 54.2233 42.9857 53.3713 42.6838C52.5193 42.382 51.8567 41.9339 51.3975 41.3301C50.9337 40.731 50.6733 39.9999 50.6118 39.1367C50.6118 39.0895 50.6118 39.0376 50.6071 38.9857H41.4717C41.3297 38.9857 41.2019 39.0848 41.1688 39.2216C40.7523 40.9291 40.6434 42.4763 40.8422 43.8537C41.0505 45.2971 41.6374 46.5093 42.603 47.4905C43.5639 48.4716 44.946 49.2263 46.7447 49.7452C48.5433 50.264 50.7869 50.5282 53.4849 50.5282C57.3473 50.5282 60.7269 50.0046 63.6285 48.9622C66.5253 47.9197 68.944 46.448 70.8752 44.5423C72.8064 42.6414 74.2643 40.3631 75.2441 37.7169C75.973 35.7546 76.1813 33.9103 75.8736 32.1839" fill="white"/>
</g>
<defs>
<clipPath id="clip0_15_1089">
<rect width="142" height="70" fill="white" transform="translate(0.5)"/>
</clipPath>
</defs>
</svg>
