<svg width="22" height="24" viewBox="0 0 22 24" fill="none" xmlns="http://www.w3.org/2000/svg">
<path d="M21.9888 19.6563C22.0002 20.1265 21.9188 20.5943 21.7493 21.0329C21.5798 21.4716 21.3256 21.8726 21.0011 22.213C20.6765 22.5534 20.2881 22.8265 19.8581 23.0168C19.428 23.207 18.9646 23.3106 18.4944 23.3217H6.88669C6.63663 23.3064 6.40282 23.1927 6.23629 23.0055C6.06976 22.8184 5.98405 22.5729 5.99787 22.3228C5.98405 22.0726 6.06976 21.8272 6.23629 21.64C6.40282 21.4529 6.63663 21.3392 6.88669 21.3238H18.4944C18.9431 21.3297 19.3759 21.1575 19.6979 20.845C20.0199 20.5324 20.205 20.105 20.2125 19.6563V3.66538C20.2046 3.21691 20.0195 2.78982 19.6975 2.47755C19.3755 2.16528 18.9429 1.99327 18.4944 1.99917H6.88669C6.64214 1.96992 6.41679 1.85203 6.25331 1.66782C6.08982 1.48361 5.99953 1.24586 5.99953 0.999573C5.99953 0.753281 6.08982 0.515532 6.25331 0.331324C6.41679 0.147116 6.64214 0.0292301 6.88669 -2.28882e-05H18.4944C18.9649 0.0105705 19.4287 0.113829 19.8593 0.303839C20.2898 0.493851 20.6786 0.766886 21.0036 1.10733C21.3285 1.44777 21.5831 1.84894 21.7528 2.28787C21.9225 2.72681 22.0041 3.19491 21.9927 3.66538L21.9888 19.6563ZM13.3934 12.7272H3.41693L7.04475 16.355C7.13731 16.4483 7.21059 16.559 7.26039 16.6806C7.31019 16.8022 7.33554 16.9325 7.335 17.064C7.33446 17.1954 7.30803 17.3254 7.25723 17.4467C7.20643 17.5679 7.13225 17.6779 7.03892 17.7705C6.85044 17.9574 6.59542 18.0618 6.32997 18.0607C6.06451 18.0596 5.81036 17.9531 5.62342 17.7647L0.293112 12.4382C0.200186 12.3454 0.126472 12.2351 0.0761788 12.1137C0.0258859 11.9923 0 11.8622 0 11.7308C0 11.5994 0.0258859 11.4693 0.0761788 11.3479C0.126472 11.2266 0.200186 11.1163 0.293112 11.0234L5.62342 5.69048C5.71546 5.59415 5.82582 5.51717 5.94802 5.46407C6.07021 5.41097 6.20179 5.38282 6.33501 5.38127C6.46824 5.37972 6.60043 5.4048 6.72383 5.45504C6.84723 5.50529 6.95935 5.57967 7.05361 5.67384C7.14786 5.76801 7.22235 5.88006 7.27271 6.00341C7.32306 6.12677 7.34827 6.25894 7.34684 6.39217C7.34541 6.52539 7.31738 6.65699 7.26439 6.77924C7.2114 6.90148 7.13453 7.01191 7.03828 7.10404L3.41045 10.7319H13.387C13.7187 10.7319 13.9869 11.1802 13.9869 11.7308C13.9869 12.2815 13.7251 12.7272 13.3934 12.7272Z" fill="white"/>
</svg>